#!OML:ASF E:\Steps\Project 1\Capture day 1\Session 2\Subject.ASF
:FULLY-SPECIFIED
:DEGREES
474
root 9.50791 16.3984 3.37447 -161.304 -1.11271 177.916
lowerback -18.9558 -1.33511 -5.35653
upperback 2.97323 -0.523854 0.0605981
thorax 14.1617 -0.69203 2.95894
lowerneck -1.94979 -1.07847 -1.31085
upperneck 19.5512 -3.58761 3.81228
head 6.3305 -2.1157 1.15575
rclavicle -2.38542e-015 9.93923e-016
rhumerus -33.5495 -15.4069 -78.437
rradius 43.338
rwrist -3.44116
rhand -6.10728 -56.9704
rfingers 7.12502
rthumb 19.7292 -85.9892
lclavicle -2.38542e-015 9.93923e-016
lhumerus -31.3593 8.59857 78.3655
lradius 20.4282
lwrist -7.21851
lhand -20.1959 -13.1266
lfingers 7.12502
lthumb 6.1507 16.7641
rfemur -19.5175 7.12642 21.401
rtibia 9.15109
rfoot -16.4323 -4.76549
rtoes -29.2368
lfemur -68.3054 -3.03831 -22.4072
ltibia 89.6685
lfoot -14.5425 3.48896
ltoes -22.9343
475
root 9.50886 16.4 3.30709 -161.238 -1.037 177.866
lowerback -19.0373 -1.29381 -5.37517
upperback 3.00396 -0.448135 -0.0220146
thorax 14.2388 -0.657512 2.89866
lowerneck -1.58445 -0.930025 -1.13401
upperneck 18.9295 -3.26924 3.6582
head 6.0561 -1.94739 1.10562
rclavicle -1.68967e-015 1.98785e-016
rhumerus -33.2333 -15.0968 -78.6665
rradius 43.5975
rwrist -3.74319
rhand -6.25582 -56.2139
rfingers 7.12502
rthumb 19.5864 -85.2472
lclavicle -1.68967e-015 1.98785e-016
lhumerus -31.5926 9.37337 77.833
lradius 19.8844
lwrist -8.0604
lhand -20.3855 -13.0585
lfingers 7.12502
lthumb 5.96764 16.8375
rfemur -19.3302 7.17612 21.3794
rtibia 9.18951
rfoot -16.6951 -4.75928
rtoes -29.0692
lfemur -69.4614 -3.11605 -22.3265
ltibia 89.1533
lfoot -15.01 3.62667
ltoes -22.4288
476
root 9.51198 16.4041 3.25278 -161.18 -0.869119 177.859
lowerback -18.9228 -1.24991 -5.41658
upperback 2.97263 -0.384868 -0.0511296
thorax 14.1275 -0.627319 2.90912
lowerneck -2.52896 -0.994483 -1.72464
upperneck 20.3111 -3.58516 4.09757
head 6.68499 -2.12893 1.30458
rclavicle -1.2424e-016 -6.36111e-015
rhumerus -32.8506 -14.7135 -78.8304
rradius 43.6915
rwrist -3.96077
rhand -6.46323 -54.9067
rfingers 7.12502
rthumb 19.387 -83.9603
lclavicle -1.2424e-016 -6.36111e-015
lhumerus -31.9416 10.0386 77.3571
lradius 19.3931
lwrist -8.86387
lhand -20.6914 -13.4404
lfingers 7.12502
lthumb 5.67231 16.4637
rfemur -19.2376 7.4623 21.3403
rtibia 9.21809
rfoot -16.834 -4.91949
rtoes -29.3109
lfemur -70.6167 -3.04931 -22.2013
ltibia 88.5538
lfoot -15.2628 3.99743
ltoes -23.2687
477
root 9.50976 16.4037 3.1895 -161.109 -0.744854 177.842
lowerback -19.0021 -1.16681 -5.38151
upperback 3.00054 -0.268222 -0.115132
thorax 14.1955 -0.570222 2.85221
lowerneck -2.12691 -0.914948 -1.75082
upperneck 19.7498 -3.40686 4.17321
head 6.4302 -2.03186 1.3531
rclavicle 1.73937e-016 -1.98785e-016
rhumerus -32.4914 -14.458 -79.0107
rradius 43.8786
rwrist -4.26052
rhand -6.70092 -55.0095
rfingers 7.12502
rthumb 19.1584 -84.0858
lclavicle 1.73937e-016 -1.98785e-016
lhumerus -32.2411 10.3421 77.0282
lradius 19.1077
lwrist -9.28525
lhand -20.9663 -13.9584
lfingers 7.12502
lthumb 5.4069 15.9527
rfemur -18.9934 7.5777 21.3291
rtibia 9.06556
rfoot -17.0007 -4.95762
rtoes -29.988
lfemur -71.5258 -3.02297 -22.0939
ltibia 87.6478
lfoot -15.4354 4.24284
ltoes -23.0932
478
root 9.50414 16.4005 3.12185 -161.048 -0.695337 177.873
lowerback -19.117 -1.10146 -5.26234
upperback 3.07694 -0.192686 -0.162119
thorax 14.3457 -0.528257 2.75404
lowerneck -2.0801 -0.958401 -1.77663
upperneck 19.5703 -3.42982 4.16817
head 6.36583 -2.03804 1.3563
rclavicle 6.5102e-015 1.0138e-014
rhumerus -32.0702 -14.1757 -79.2491
rradius 44.0306
rwrist -4.56408
rhand -7.03503 -55.2612
rfingers 7.12502
rthumb 18.8371 -84.3691
lclavicle 6.5102e-015 1.0138e-014
lhumerus -32.416 10.6621 76.7606
lradius 18.8219
lwrist -9.63083
lhand -21.2536 -14.2285
lfingers 7.12502
lthumb 5.12946 15.6894
rfemur -18.7314 7.47086 21.4132
rtibia 9.00466
rfoot -17.3003 -4.78943
rtoes -30.1546
lfemur -72.2665 -3.05501 -21.9463
ltibia 86.5618
lfoot -15.6262 4.4551
ltoes -22.7052
479
root 9.50302 16.3985 3.0587 -161.071 -0.646245 177.808
lowerback -19.0029 -1.07567 -5.30688
upperback 3.13956 -0.14424 -0.226261
thorax 14.3475 -0.507597 2.7212
lowerneck -2.21052 -0.994975 -1.6631
upperneck 19.7146 -3.45622 3.9259
head 6.43033 -2.05823 1.2561
rclavicle -4.96962e-017 -1.78906e-015
rhumerus -31.5878 -13.8143 -79.5166
rradius 44.124
rwrist -4.6767
rhand -6.30126 -57.283
rfingers 7.12502
rthumb 19.5427 -86.3209
lclavicle -4.96962e-017 -1.78906e-015
lhumerus -32.6368 11.0707 76.4242
lradius 18.5129
lwrist -10.1139
lhand -21.5612 -14.7401
lfingers 7.12502
lthumb 4.83243 15.1847
rfemur -18.5273 7.49818 21.38
rtibia 9.1793
rfoot -17.6415 -4.80958
rtoes -29.934
lfemur -72.9034 -3.10783 -21.8855
ltibia 85.467
lfoot -15.7145 4.76342
ltoes -23.2987
480
root 9.50608 16.3972 2.99766 -161.141 -0.474608 177.637
lowerback -18.7989 -1.018 -5.53425
upperback 3.14343 -0.0128737 -0.347437
thorax 14.2199 -0.458006 2.75303
lowerneck -1.71713 -1.00244 -1.50646
upperneck 19.1264 -3.36623 3.71367
head 6.14942 -2.0135 1.17757
rclavicle 5.31749e-015 2.78299e-015
rhumerus -31.2959 -13.4037 -79.7461
rradius 44.2854
rwrist -4.90079
rhand -5.7015 -59.1424
rfingers 7.12502
rthumb 20.1193 -88.1207
lclavicle 5.31749e-015 2.78299e-015
lhumerus -32.9602 11.7119 75.8603
lradius 18.1098
lwrist -10.8044
lhand -21.4726 -14.7367
lfingers 7.12502
lthumb 4.91799 15.1862
rfemur -18.2691 7.82826 21.1764
rtibia 9.28474
rfoot -17.8561 -5.09265
rtoes -29.6123
lfemur -73.4661 -3.04504 -21.9656
ltibia 84.385
lfoot -15.781 4.99423
ltoes -23.9094
481
root 9.50527 16.3957 2.93283 -161.123 -0.311693 177.591
lowerback -18.7927 -0.93845 -5.5999
upperback 3.13738 0.117258 -0.429622
thorax 14.1974 -0.399764 2.7368
lowerneck -2.32252 -1.10291 -1.74278
upperneck 20.3306 -3.71116 3.90509
head 6.65628 -2.21031 1.24002
rclavicle 2.88238e-015 3.08116e-015
rhumerus -31.0412 -13.0305 -79.8929
rradius 44.3607
rwrist -5.0605
rhand -6.90644 -56.4912
rfingers 7.12502
rthumb 18.9608 -85.587
lclavicle 2.88238e-015 3.08116e-015
lhumerus -33.2264 12.4531 75.2739
lradius 17.6429
lwrist -11.521
lhand -20.9685 -13.8567
lfingers 7.12502
lthumb 5.40479 16.0544
rfemur -18.0503 8.0509 21.1156
rtibia 9.32222
rfoot -18.0665 -5.1964
rtoes -29.1304
lfemur -73.991 -2.96116 -21.9105
ltibia 83.1126
lfoot -15.8004 5.10808
ltoes -23.9937
482
root 9.50176 16.3934 2.867 -161.068 -0.342608 177.579
lowerback -18.7559 -0.921391 -5.58254
upperback 3.13971 0.137955 -0.470174
thorax 14.176 -0.386439 2.68705
lowerneck -1.75104 -0.991294 -1.34279
upperneck 19.5554 -3.39312 3.45606
head 6.2864 -2.04859 1.06274
rclavicle -4.32357e-015 -4.57205e-015
rhumerus -30.5658 -12.7863 -80.0578
rradius 44.2173
rwrist -4.94936
rhand -6.63596 -55.9056
rfingers 7.12502
rthumb 19.2209 -84.9758
lclavicle -4.32357e-015 -4.57205e-015
lhumerus -33.5128 12.7054 74.984
lradius 17.4039
lwrist -11.6598
lhand -20.7379 -13.4236
lfingers 7.12502
lthumb 5.62745 16.4817
rfemur -17.8011 8.00103 21.1591
rtibia 9.35725
rfoot -18.398 -5.08326
rtoes -28.7468
lfemur -74.438 -3.07873 -21.7568
ltibia 81.7136
lfoot -15.8947 5.10398
ltoes -23.7815
483
root 9.50088 16.3893 2.80078 -161.103 -0.360947 177.536
lowerback -18.5677 -0.922833 -5.64612
upperback 3.15968 0.140584 -0.484741
thorax 14.0871 -0.387623 2.70693
lowerneck -2.10012 -1.08953 -1.57004
upperneck 19.8715 -3.57018 3.61111
head 6.4585 -2.13746 1.13287
rclavicle 3.03147e-015 2.16675e-014
rhumerus -30.0801 -12.5226 -80.2467
rradius 44.1028
rwrist -4.80968
rhand -6.74385 -55.6707
rfingers 7.12502
rthumb 19.1172 -84.7512
lclavicle 3.03147e-015 2.16675e-014
lhumerus -33.7665 12.8355 74.8016
lradius 17.1477
lwrist -11.5563
lhand -20.8231 -13.4875
lfingers 7.12502
lthumb 5.54511 16.42
rfemur -17.4681 8.0066 21.1901
rtibia 9.38082
rfoot -18.7154 -5.07203
rtoes -28.9772
lfemur -74.7484 -3.16335 -21.6133
ltibia 80.319
lfoot -15.988 4.94885
ltoes -21.5492
484
root 9.49888 16.3842 2.72961 -161.117 -0.164692 177.509
lowerback -18.634 -0.825515 -5.72183
upperback 3.25919 0.302989 -0.526055
thorax 14.2302 -0.323391 2.75226
lowerneck -2.00913 -0.98161 -1.70296
upperneck 19.5435 -3.38068 3.79025
head 6.3367 -2.03029 1.22821
rclavicle 2.83268e-015 -9.54166e-015
rhumerus -29.6553 -12.3444 -80.4324
rradius 44.2545
rwrist -4.71232
rhand -6.83293 -55.7751
rfingers 7.12502
rthumb 19.0315 -84.864
lclavicle 2.83268e-015 -9.54166e-015
lhumerus -33.7731 13.3498 74.4511
lradius 16.7063
lwrist -12.086
lhand -20.8344 -13.4992
lfingers 7.12502
lthumb 5.53423 16.4086
rfemur -17.3407 8.15127 21.1969
rtibia 9.68929
rfoot -19.0536 -5.20266
rtoes -29.667
lfemur -74.9653 -3.04638 -21.4808
ltibia 78.7392
lfoot -15.9337 4.61754
ltoes -17.8146
485
root 9.49468 16.3803 2.66241 -161.052 -0.000835739 177.374
lowerback -18.7334 -0.728868 -5.86302
upperback 3.32909 0.487705 -0.634335
thorax 14.3567 -0.251344 2.76589
lowerneck -2.55915 -1.11832 -1.85768
upperneck 20.1865 -3.65783 3.92644
head 6.6517 -2.16781 1.26927
rclavicle 6.95746e-015 -5.1684e-015
rhumerus -29.3079 -12.2124 -80.6521
rradius 44.5482
rwrist -4.74192
rhand -6.72548 -56.0786
rfingers 7.12502
rthumb 19.1348 -85.1573
lclavicle 6.95746e-015 -5.1684e-015
lhumerus -33.8412 14.2313 73.871
lradius 16.3795
lwrist -13.0703
lhand -20.5898 -13.2351
lfingers 7.12502
lthumb 5.77036 16.6663
rfemur -17.2675 8.38448 21.0216
rtibia 10.0262
rfoot -19.5307 -5.30561
rtoes -29.2263
lfemur -75.1823 -3.02273 -21.4947
ltibia 77.1442
lfoot -15.747 4.22655
ltoes -17.5286
486
root 9.49235 16.3786 2.59918 -161.032 0.0110644 177.161
lowerback -18.6379 -0.688672 -6.0764
upperback 3.35767 0.59647 -0.739381
thorax 14.3243 -0.215232 2.79975
lowerneck -2.25999 -1.04609 -1.56071
upperneck 19.8294 -3.45842 3.54857
head 6.4685 -2.07191 1.11794
rclavicle -1.68967e-015 1.41137e-014
rhumerus -29.0264 -11.9721 -80.816
rradius 44.6516
rwrist -4.69797
rhand -6.59539 -56.1587
rfingers 7.12502
rthumb 19.2599 -85.225
lclavicle -1.68967e-015 1.41137e-014
lhumerus -33.9669 14.7961 73.4525
lradius 16.2055
lwrist -13.5418
lhand -20.288 -12.8109
lfingers 7.12502
lthumb 6.06177 17.0824
rfemur -16.932 8.50203 20.7613
rtibia 9.94848
rfoot -19.8085 -5.52242
rtoes -28.1576
lfemur -75.335 -3.15649 -21.6003
ltibia 75.7933
lfoot -15.4228 4.28955
ltoes -22.207
487
root 9.48933 16.3765 2.53141 -161.06 0.0362112 177.08
lowerback -18.572 -0.623967 -6.15311
upperback 3.41125 0.707549 -0.825196
thorax 14.3385 -0.168829 2.77861
lowerneck -2.14929 -1.12671 -1.54024
upperneck 19.7339 -3.57139 3.58676
head 6.42239 -2.12236 1.12156
rclavicle 3.62782e-015 -3.57812e-015
rhumerus -28.7492 -11.6816 -80.9972
rradius 44.7009
rwrist -4.57865
rhand -6.51352 -56.0534
rfingers 7.12502
rthumb 19.3387 -85.1119
lclavicle 3.62782e-015 -3.57812e-015
lhumerus -34.0806 14.7049 73.337
lradius 16.1556
lwrist -13.4611
lhand -20.2275 -12.7497
lfingers 7.12502
lthumb 6.12014 17.1419
rfemur -16.5707 8.43922 20.6981
rtibia 9.86564
rfoot -19.8635 -5.78675
rtoes -27.8711
lfemur -75.3725 -3.23664 -21.5625
ltibia 74.433
lfoot -15.0739 4.50449
ltoes -26.4813
